<svg xmlns="http://www.w3.org/2000/svg" viewBox="0 0 512 512">
  <defs>
    <linearGradient id="bg" x1="0" y1="0" x2="1" y2="1">
      <stop offset="0" stop-color="#A41A45"/>
      <stop offset="1" stop-color="#5C0E25"/>
    </linearGradient>
    <linearGradient id="trophy" x1="0" y1="0" x2="0" y2="1">
      <stop offset="0" stop-color="#FFD86B"/>
      <stop offset="1" stop-color="#EEAD19"/>
    </linearGradient>
  </defs>
  <!-- Maskable: solid background covering the full safe area -->
  <rect width="512" height="512" fill="url(#bg)"/>
  <g transform="translate(140 150) scale(0.78)" fill="url(#trophy)">
    <path d="M88 0h144v40c0 12 0 24-2 36h28c20 0 36-16 36-36V20h-26v20c0 8-6 14-14 14h-22c2-18 2-36 2-54zM44 20H18v20c0 20 16 36 36 36h28c-2-12-2-24-2-36V0H44v20zM126 152c-44-8-74-44-78-90h224c-4 46-34 82-78 90v40c0 18 14 32 32 32h22c14 0 26 12 26 26v10H102v-10c0-14 12-26 26-26h22c18 0 32-14 32-32v-40h-56z"/>
  </g>
</svg>
